<svg width="26" height="26" viewBox="0 0 26 26" fill="none" xmlns="http://www.w3.org/2000/svg">
<rect x="3.99625" y="3.99622" width="18.0075" height="18.0075" rx="3" stroke="#222222" stroke-width="1.5" stroke-linecap="round" stroke-linejoin="round"/>
<path d="M22.0037 8.99838H3.99625" stroke="#222222" stroke-width="1.5" stroke-linecap="round" stroke-linejoin="round"/>
<path d="M18.3022 12.4998C18.3022 12.5275 18.2798 12.5499 18.2522 12.5499C18.2246 12.5499 18.2022 12.5275 18.2022 12.4998C18.2022 12.4722 18.2246 12.4498 18.2522 12.4498" stroke="#222222" stroke-width="1.5" stroke-linecap="round" stroke-linejoin="round"/>
<path d="M18.2522 12.4498C18.2798 12.4498 18.3022 12.4722 18.3022 12.4998" stroke="#222222" stroke-width="1.5" stroke-linecap="round" stroke-linejoin="round"/>
<path d="M14.7997 12.4998C14.7997 12.5275 14.7773 12.5499 14.7497 12.5499C14.7221 12.5499 14.6997 12.5275 14.6997 12.4998C14.6997 12.4722 14.7221 12.4498 14.7497 12.4498" stroke="#222222" stroke-width="1.5" stroke-linecap="round" stroke-linejoin="round"/>
<path d="M14.7497 12.4498C14.7773 12.4498 14.7997 12.4722 14.7997 12.4998" stroke="#222222" stroke-width="1.5" stroke-linecap="round" stroke-linejoin="round"/>
<path d="M11.2983 12.4998C11.2983 12.5275 11.2759 12.5499 11.2483 12.5499C11.2206 12.5499 11.1982 12.5275 11.1982 12.4998C11.1982 12.4722 11.2206 12.4498 11.2483 12.4498" stroke="#222222" stroke-width="1.5" stroke-linecap="round" stroke-linejoin="round"/>
<path d="M11.2483 12.4498C11.2759 12.4498 11.2983 12.4722 11.2983 12.4998" stroke="#222222" stroke-width="1.5" stroke-linecap="round" stroke-linejoin="round"/>
<path d="M7.79683 15.5011C7.79683 15.5287 7.77443 15.5511 7.74681 15.5511C7.71918 15.5511 7.69678 15.5287 7.69678 15.5011C7.69678 15.4734 7.71918 15.451 7.74681 15.451" stroke="#222222" stroke-width="1.5" stroke-linecap="round" stroke-linejoin="round"/>
<path d="M7.7468 15.451C7.77443 15.451 7.79683 15.4734 7.79683 15.501" stroke="#222222" stroke-width="1.5" stroke-linecap="round" stroke-linejoin="round"/>
<path d="M11.2983 15.5011C11.2983 15.5287 11.2759 15.5511 11.2483 15.5511C11.2206 15.5511 11.1982 15.5287 11.1982 15.5011C11.1982 15.4734 11.2206 15.451 11.2483 15.451" stroke="#222222" stroke-width="1.5" stroke-linecap="round" stroke-linejoin="round"/>
<path d="M11.2483 15.451C11.2759 15.451 11.2983 15.4734 11.2983 15.501" stroke="#222222" stroke-width="1.5" stroke-linecap="round" stroke-linejoin="round"/>
<path d="M14.7997 15.5011C14.7997 15.5287 14.7773 15.5511 14.7497 15.5511C14.7221 15.5511 14.6997 15.5287 14.6997 15.5011C14.6997 15.4734 14.7221 15.451 14.7497 15.451" stroke="#222222" stroke-width="1.5" stroke-linecap="round" stroke-linejoin="round"/>
<path d="M14.7497 15.451C14.7773 15.451 14.7997 15.4734 14.7997 15.501" stroke="#222222" stroke-width="1.5" stroke-linecap="round" stroke-linejoin="round"/>
<path d="M18.3022 15.5011C18.3022 15.5287 18.2798 15.5511 18.2522 15.5511C18.2246 15.5511 18.2022 15.5287 18.2022 15.5011C18.2022 15.4734 18.2246 15.451 18.2522 15.451" stroke="#222222" stroke-width="1.5" stroke-linecap="round" stroke-linejoin="round"/>
<path d="M18.2522 15.451C18.2798 15.451 18.3022 15.4734 18.3022 15.501" stroke="#222222" stroke-width="1.5" stroke-linecap="round" stroke-linejoin="round"/>
<path d="M18.3022 18.5023C18.3022 18.5299 18.2798 18.5523 18.2522 18.5523C18.2246 18.5523 18.2022 18.5299 18.2022 18.5023C18.2022 18.4747 18.2246 18.4523 18.2522 18.4523" stroke="#222222" stroke-width="1.5" stroke-linecap="round" stroke-linejoin="round"/>
<path d="M18.2522 18.4522C18.2798 18.4522 18.3022 18.4746 18.3022 18.5023" stroke="#222222" stroke-width="1.5" stroke-linecap="round" stroke-linejoin="round"/>
<path d="M14.7997 18.5023C14.7997 18.5299 14.7773 18.5523 14.7497 18.5523C14.7221 18.5523 14.6997 18.5299 14.6997 18.5023C14.6997 18.4747 14.7221 18.4523 14.7497 18.4523" stroke="#222222" stroke-width="1.5" stroke-linecap="round" stroke-linejoin="round"/>
<path d="M14.7497 18.4522C14.7773 18.4522 14.7997 18.4746 14.7997 18.5023" stroke="#222222" stroke-width="1.5" stroke-linecap="round" stroke-linejoin="round"/>
<path d="M11.2983 18.5023C11.2983 18.5299 11.2759 18.5523 11.2483 18.5523C11.2206 18.5523 11.1982 18.5299 11.1982 18.5023C11.1982 18.4747 11.2206 18.4523 11.2483 18.4523" stroke="#222222" stroke-width="1.5" stroke-linecap="round" stroke-linejoin="round"/>
<path d="M11.2483 18.4522C11.2759 18.4522 11.2983 18.4746 11.2983 18.5023" stroke="#222222" stroke-width="1.5" stroke-linecap="round" stroke-linejoin="round"/>
<path d="M7.79683 18.5023C7.79683 18.5299 7.77443 18.5523 7.74681 18.5523C7.71918 18.5523 7.69678 18.5299 7.69678 18.5023C7.69678 18.4747 7.71918 18.4523 7.74681 18.4523" stroke="#222222" stroke-width="1.5" stroke-linecap="round" stroke-linejoin="round"/>
<path d="M7.7468 18.4522C7.77443 18.4522 7.79683 18.4746 7.79683 18.5023" stroke="#222222" stroke-width="1.5" stroke-linecap="round" stroke-linejoin="round"/>
</svg>
